PathFileType	4	(X/Y/Z)	c:\Git\powerlifing_model_clean\simulations\HC835B\Session1\HC835B_OGW_0002\marker_experimental.trc
DataRate	CameraRate	NumFrames	NumMarkers	Units	OrigDataRate	OrigDataStartFrame	OrigNumFrames
240.000000	240.000000	4	38	mm	240.000000	54	436
Frame#	Time	RPSI			LPSI			RASI			LASI			RTH1			RTH2			RTH3			RTH4			RSK1			RSK2			RSK3			RSK4			RCAL1			RCAL2			RCAL3			RST			RPT			RTN			RFMB			RSMB			RVMB			RFMH			RSMH			RVMH			RPM			LTH1			LTH2			LTH3			LTH4			LSK1			LSK2			LSK3			LSK4			LCAL1			LCAL2			LCAL3			LFMH			LVMH			
		X1	Y1	Z1	X2	Y2	Z2	X3	Y3	Z3	X4	Y4	Z4	X5	Y5	Z5	X6	Y6	Z6	X7	Y7	Z7	X8	Y8	Z8	X9	Y9	Z9	X10	Y10	Z10	X11	Y11	Z11	X12	Y12	Z12	X13	Y13	Z13	X14	Y14	Z14	X15	Y15	Z15	X16	Y16	Z16	X17	Y17	Z17	X18	Y18	Z18	X19	Y19	Z19	X20	Y20	Z20	X21	Y21	Z21	X22	Y22	Z22	X23	Y23	Z23	X24	Y24	Z24	X25	Y25	Z25	X26	Y26	Z26	X27	Y27	Z27	X28	Y28	Z28	X29	Y29	Z29	X30	Y30	Z30	X31	Y31	Z31	X32	Y32	Z32	X33	Y33	Z33	X34	Y34	Z34	X35	Y35	Z35	X36	Y36	Z36	X37	Y37	Z37	X38	Y38	Z38	

55	0.225	455.1842041015626	1088.824462890625	-2135.97119140625	565.6452636718751	1083.590942382813	-2135.83251953125	395.0296325683595	1061.821533203125	-1922.474365234375	632.5082397460939	1040.306518554688	-1928.356201171875	330.3768615722657	789.0869750976565	-1917.127075195313	343.0337219238282	797.903259277344	-1859.286987304688	348.3505859375001	720.7197875976564	-1870.640747070313	370.2922973632813	728.9127807617189	-1816.753051757813	414.6174926757814	277.8092651367188	-1875.949096679688	414.0422973632814	266.8686828613282	-1814.760375976563	422.822479248047	222.4663848876954	-1857.438842773438	434.4016113281251	213.5361785888672	-1798.880859375	495.0442810058595	81.17932891845705	-1907.569213867188	524.8212890625001	42.86804962158204	-1894.925415039063	461.8853454589845	44.53026199340821	-1906.268798828125	531.8937988281251	59.09923934936525	-1826.203857421875	432.1484985351564	58.09461975097658	-1849.911254882813	511.4413146972657	81.46165466308595	-1773.713745117188	503.6993408203126	67.25589752197267	-1740.393676757813	456.3237609863282	92.55116271972658	-1738.041381835938	414.9748840332032	36.45975875854493	-1807.754028320313	498.6847229003907	43.20542526245118	-1685.420776367188	443.960174560547	59.78480148315431	-1678.491455078125	391.2666320800782	34.22435379028321	-1729.773681640625	448.6582031250001	50.33118438720705	-1620.1328125	714.8531494140626	763.1005249023439	-2034.17578125	718.4227294921876	751.8793945312501	-1974.19921875	719.2568359375001	680.3516845703126	-2012.5234375	709.2368774414064	668.4118652343751	-1953.49853515625	687.7850952148439	388.2351989746095	-2287.554443359375	698.5509033203126	338.0777282714844	-2272.832275390625	686.6563720703126	342.6563110351563	-2320.88623046875	680.2860107421876	290.0857543945313	-2301.002197265625	618.1832885742189	313.2525939941407	-2443.402099609375	636.9760742187501	300.4517822265626	-2485.274658203125	580.7508544921876	297.6118469238282	-2468.652099609375	596.5465087890626	90.83567047119142	-2395.45556640625	684.3779296875001	114.3052825927735	-2459.730224609375	
56	0.2291666666666667	454.4793395996095	1090.540771484375	-2129.375732421875	564.8934326171876	1085.061401367188	-2129.22314453125	394.7601928710939	1063.34765625	-1915.79345703125	632.0105590820314	1041.942260742188	-1921.702392578125	329.9858398437501	790.1597290039065	-1911.929931640625	342.9428100585938	798.2539062500002	-1854.314697265625	348.1291198730469	721.4295043945314	-1866.076416015625	370.2518920898438	728.9417724609376	-1812.397583007813	415.2590332031251	278.2991333007813	-1875.239990234375	414.0753479003907	266.8454589843751	-1814.093139648438	423.2463684082032	222.6719207763672	-1857.076293945313	434.3092651367189	213.5155487060547	-1798.411010742188	495.0969238281251	81.17375946044923	-1907.584594726563	524.8401489257814	42.88266754150391	-1894.93798828125	461.9084472656251	44.55192565917969	-1906.291259765625	531.9616699218751	59.09482574462892	-1826.194702148438	432.2286987304689	58.15322875976564	-1849.885375976563	511.5403137207032	81.43688201904298	-1773.633422851563	503.7924194335939	67.16814422607423	-1740.343383789063	456.4245910644532	92.46199798583986	-1737.994140625	415.0014038085939	36.49857330322266	-1807.756591796875	498.7341613769532	43.14967727661134	-1685.371704101563	444.016815185547	59.66190719604494	-1678.444702148438	391.2929992675782	34.25960540771485	-1729.774658203125	448.6632080078126	50.10496902465822	-1620.034545898438	714.5551757812501	764.2312011718751	-2024.794677734375	718.7494506835939	753.8267822265626	-1964.719970703125	719.3273925781251	681.7651977539064	-2002.142700195313	709.9283447265626	670.6563720703126	-1942.852783203125	688.2413940429689	391.0206909179689	-2273.9677734375	698.7305908203126	340.6727600097657	-2259.6064453125	686.8545532226564	345.6843566894532	-2307.669921875	680.2234497070314	292.9699096679688	-2288.072998046875	617.2239990234376	317.1480102539063	-2430.331787109375	635.5760498046876	304.5827941894532	-2472.487548828125	579.5457763671876	301.3852233886719	-2455.215087890625	597.2901000976564	94.33227539062501	-2382.9130859375	684.3392944335939	118.5998840332032	-2448.026123046875	
57	0.2333333333333333	453.7408447265626	1092.254272460938	-2122.7724609375	564.1894531250001	1086.643676757813	-2122.647705078125	394.458953857422	1064.837280273438	-1909.120483398438	631.6009521484376	1043.938720703125	-1914.58642578125	329.8549194335938	790.7406005859377	-1907.487182617188	342.8363342285157	798.7296142578127	-1849.430297851563	347.9679260253907	721.8299560546876	-1861.912231445313	370.2972106933594	728.9550781250001	-1808.27685546875	415.7540893554689	278.7301330566407	-1874.568725585938	413.944061279297	266.5767211914063	-1813.672119140625	423.4046325683595	223.2671966552735	-1856.489501953125	434.1432495117189	213.4059143066407	-1798.020141601563	495.0821838378907	81.27209472656251	-1907.61669921875	524.8648681640626	42.92960739135743	-1894.929931640625	461.9265441894532	44.60881423950196	-1906.270385742188	532.0046997070314	59.15195465087892	-1826.214233398438	432.278289794922	58.22620391845705	-1849.850341796875	511.6218261718751	81.4063186645508	-1773.595825195313	503.8658447265626	67.08727264404298	-1740.330078125	456.5098876953126	92.43897247314455	-1737.976440429688	415.0278625488282	36.50011062622071	-1807.755249023438	498.7607727050782	43.05706405639649	-1685.334838867188	444.0625915527345	59.54939270019533	-1678.427490234375	391.300506591797	34.28204727172852	-1729.738891601563	448.6911010742189	49.93539428710939	-1619.955322265625	714.2440185546876	765.5445556640626	-2015.4013671875	719.0992431640626	755.8524169921876	-1955.271484375	719.4106445312501	683.3149414062501	-1991.740356445313	710.5495605468751	673.0144042968751	-1932.237548828125	688.6239013671876	393.918914794922	-2260.511474609375	698.9047851562501	343.4632263183594	-2246.453857421875	686.7638549804689	348.8593444824219	-2294.46142578125	680.0397338867189	296.0568237304688	-2275.09521484375	616.2841796875001	320.6854858398438	-2417.511474609375	634.4957885742189	308.0837707519532	-2459.736572265625	578.6102905273439	304.5979919433594	-2442.1552734375	597.7965087890626	97.71858215332034	-2369.688720703125	684.3620605468751	122.3320999145508	-2435.1396484375	
58	0.2375	453.0151367187501	1094.044921875	-2116.187255859375	563.4440307617189	1088.337036132813	-2116.0888671875	394.2667541503907	1066.37353515625	-1902.440307617188	631.2633056640626	1045.587646484375	-1908.404418945313	329.4216308593751	791.912780761719	-1902.447143554688	342.7545471191407	799.2442016601565	-1844.6123046875	347.8632812500001	722.2765502929689	-1857.914184570313	370.4015502929688	729.1293945312501	-1804.17919921875	416.1140136718751	279.0047912597657	-1874.014038085938	413.8040771484376	266.5619506835938	-1813.197509765625	423.619354248047	223.3664093017579	-1856.259887695313	433.9353027343751	213.278549194336	-1797.6611328125	495.0766906738282	81.34526824951173	-1907.600708007813	524.8712158203126	43.00898742675782	-1894.97705078125	461.9181213378907	44.65649032592774	-1906.285034179688	532.0231323242189	59.2456398010254	-1826.275634765625	432.3064880371095	58.28109741210939	-1849.8486328125	511.6731567382814	81.3779983520508	-1773.57861328125	503.9256591796876	67.05754852294923	-1740.3076171875	456.5393371582032	92.39664459228517	-1737.906372070313	415.0500793457032	36.53469467163087	-1807.754150390625	498.7925415039064	43.00593566894532	-1685.290649414063	444.091522216797	59.48865509033205	-1678.370483398438	391.3563537597657	34.22088241577149	-1729.743774414063	448.712371826172	49.78441238403322	-1619.892822265625	713.9048461914064	766.9571533203126	-2005.965209960938	719.4114990234376	758.0275268554689	-1945.747436523438	719.4960327148439	685.0877685546876	-1981.394653320313	711.1097412109376	675.4822387695314	-1921.560302734375	688.8589477539064	396.9061889648439	-2247.13720703125	698.7976074218751	346.3130493164063	-2233.24462890625	686.6617431640626	351.8417053222657	-2281.16455078125	679.7117309570314	299.0410766601563	-2261.96337890625	615.3472900390626	323.7703857421876	-2404.80126953125	633.6906738281251	311.0546264648438	-2446.972412109375	577.7866821289064	307.4465942382813	-2429.42529296875	597.9331665039064	100.9825592041016	-2355.848388671875	684.4537963867189	125.7342529296875	-2421.274658203125	
